<svg width="29" height="29" viewBox="0 0 29 29" fill="none" xmlns="http://www.w3.org/2000/svg">
<g id="&#240;&#159;&#166;&#134; icon &#34;profile circled&#34;">
<path id="Vector" d="M14.375 1C6.98819 1 1 6.98819 1 14.375C1 21.7617 6.98819 27.75 14.375 27.75C21.7617 27.75 27.75 21.7617 27.75 14.375C27.75 6.98819 21.7617 1 14.375 1Z" stroke="black" stroke-width="2" stroke-linecap="round" stroke-linejoin="round"/>
<path id="Vector_2" d="M4.03748 22.8623C4.03748 22.8623 7.01879 19.0562 14.375 19.0562C21.7313 19.0562 24.7127 22.8623 24.7127 22.8623" stroke="black" stroke-width="2" stroke-linecap="round" stroke-linejoin="round"/>
<path id="Vector_3" d="M14.375 14.3751C16.5912 14.3751 18.3875 12.5787 18.3875 10.3626C18.3875 8.14656 16.5912 6.3501 14.375 6.3501C12.1589 6.3501 10.3625 8.14656 10.3625 10.3626C10.3625 12.5787 12.1589 14.3751 14.375 14.3751Z" stroke="black" stroke-width="2" stroke-linecap="round" stroke-linejoin="round"/>
</g>
</svg>
